<svg viewBox="0 0 200 200" xmlns="http://www.w3.org/2000/svg">
  <path fill="rgba(255,255,255,0.07)"  d="M39.6,-68C53,-60.8,66.7,-53.6,74.1,-42.3C81.5,-30.9,82.6,-15.5,81.4,-0.7C80.2,14.1,76.8,28.2,69.1,39.2C61.5,50.1,49.7,57.9,37.5,64.5C25.3,71.1,12.6,76.5,-1.1,78.4C-14.9,80.4,-29.8,78.9,-42.9,72.9C-56,66.8,-67.3,56.1,-74.2,43.2C-81,30.3,-83.4,15.1,-84.1,-0.4C-84.9,-16,-84,-32,-76.6,-43.9C-69.2,-55.8,-55.2,-63.6,-41.3,-70.5C-27.5,-77.4,-13.7,-83.5,-0.3,-82.9C13.1,-82.4,26.2,-75.2,39.6,-68Z" transform="translate(100 100)" />
</svg>