<svg viewBox="0 0 200 200" xmlns="http://www.w3.org/2000/svg">
  <path fill="rgba(255,255,255,0.07)"  d="M43.1,-73.4C56.5,-67,68.3,-56.6,74.9,-43.7C81.6,-30.8,83.1,-15.4,82.4,-0.4C81.6,14.6,78.7,29.2,71.7,41.5C64.7,53.7,53.6,63.7,41,70.9C28.4,78.1,14.2,82.5,0.3,82C-13.5,81.4,-27.1,75.9,-40.6,69.2C-54,62.5,-67.5,54.6,-77.4,42.9C-87.2,31.1,-93.6,15.6,-93.2,0.2C-92.8,-15.1,-85.7,-30.2,-75.9,-42.2C-66.2,-54.1,-53.8,-62.9,-40.7,-69.4C-27.6,-76,-13.8,-80.3,0.5,-81.2C14.9,-82.1,29.8,-79.7,43.1,-73.4Z" transform="translate(100 100)" />
</svg>